<svg width="25" height="26" viewBox="0 0 25 26" fill="none" xmlns="http://www.w3.org/2000/svg">
<g id="image" clip-path="url(#clip0_751_2213)">
<g id="Group">
<path id="Vector" fill-rule="evenodd" clip-rule="evenodd" d="M12.5334 0.101562C9.15156 0.101562 8.72734 0.115918 7.39834 0.176563C6.07354 0.236133 5.16885 0.446582 4.37793 0.754687C3.54644 1.06676 2.79319 1.55677 2.1709 2.19043C1.53712 2.813 1.0471 3.5666 0.735156 4.39844C0.427051 5.18828 0.216602 6.09307 0.158008 7.41797C0.0954102 8.74678 0.0820312 9.1709 0.0820312 12.5528C0.0820312 15.9347 0.0963867 16.3589 0.157031 17.6878C0.216602 19.0127 0.427051 19.9175 0.735156 20.7083C1.05352 21.5277 1.47871 22.223 2.1709 22.9153C2.7932 23.549 3.54645 24.0389 4.37793 24.351C5.16875 24.6591 6.07461 24.8696 7.39941 24.9292C8.72734 24.9908 9.15146 25.0042 12.5334 25.0042C15.9152 25.0042 16.3395 24.9898 17.6684 24.9292C18.9933 24.8696 19.898 24.6591 20.6889 24.3511C21.5204 24.039 22.2736 23.5489 22.8959 22.9152C23.5295 22.2929 24.0195 21.5397 24.3315 20.7082C24.6396 19.9175 24.8502 19.0116 24.9098 17.6867C24.9714 16.3589 24.9848 15.9348 24.9848 12.5528C24.9848 9.171 24.9704 8.74678 24.9098 7.41777C24.8502 6.09297 24.6396 5.18828 24.3316 4.39736C24.0195 3.56586 23.5295 2.81261 22.8958 2.19033C22.2735 1.55667 21.5203 1.06666 20.6888 0.75459C19.898 0.446484 18.9933 0.236035 17.6684 0.177441C16.3395 0.114941 15.9153 0.101562 12.5335 0.101562M12.5335 2.34453C15.8579 2.34453 16.2513 2.35684 17.5657 2.41748C18.7786 2.47295 19.438 2.67627 19.8766 2.84678C20.4578 3.07266 20.8727 3.3417 21.3092 3.77715C21.7447 4.21367 22.0138 4.62861 22.2396 5.20879C22.4102 5.64844 22.6135 6.30771 22.6689 7.52061C22.7295 8.83516 22.7408 9.22744 22.7408 12.5528C22.7408 15.8773 22.7296 16.2706 22.6689 17.5853C22.6135 18.7981 22.4102 19.4574 22.2396 19.896C22.0138 20.4772 21.7446 20.8921 21.3092 21.3286C20.9075 21.7419 20.4183 22.0599 19.8775 22.2591C19.4381 22.4296 18.7787 22.6329 17.5658 22.6884C16.2523 22.7489 15.8589 22.7603 12.5335 22.7603C9.20801 22.7603 8.81475 22.749 7.50127 22.6884C6.28838 22.6329 5.629 22.4296 5.19043 22.2591C4.6493 22.06 4.15974 21.742 3.75781 21.3286C3.34453 20.927 3.02657 20.4377 2.82734 19.897C2.65684 19.4575 2.45352 18.7981 2.39805 17.5853C2.3375 16.2707 2.32607 15.8772 2.32607 12.5529C2.32607 9.22744 2.3374 8.83516 2.39805 7.5207C2.45352 6.30781 2.65684 5.64844 2.82734 5.20986C3.05322 4.62861 3.32227 4.21367 3.75771 3.77725C4.15977 3.36418 4.64936 3.04655 5.19043 2.84775C5.62998 2.67725 6.28936 2.47393 7.50225 2.41846C8.8167 2.35791 9.21016 2.34658 12.5345 2.34658" fill="#F93F23"/>
<path id="Vector_2" fill-rule="evenodd" clip-rule="evenodd" d="M12.1594 16.2041C11.6252 16.2128 11.0946 16.1151 10.5985 15.9167C10.1024 15.7183 9.65082 15.4232 9.26996 15.0485C8.8891 14.6738 8.58662 14.227 8.38015 13.7343C8.17368 13.2415 8.06735 12.7126 8.06735 12.1783C8.06735 11.644 8.17368 11.1151 8.38015 10.6224C8.58662 10.1296 8.8891 9.68285 9.26996 9.30816C9.65082 8.93347 10.1024 8.63833 10.5985 8.43994C11.0946 8.24154 11.6252 8.14386 12.1594 8.15259C14.358 8.18716 16.1223 9.97935 16.1223 12.1784C16.1223 14.3773 14.358 16.1696 12.1594 16.2041ZM12.1594 5.977C11.3387 5.96723 10.5242 6.12044 9.76312 6.42775C9.00205 6.73507 8.30955 7.19037 7.72573 7.76727C7.14192 8.34418 6.67841 9.03122 6.36206 9.78857C6.04571 10.5459 5.88281 11.3585 5.88281 12.1793C5.88281 13.0001 6.04571 13.8127 6.36206 14.57C6.67841 15.3274 7.14192 16.0144 7.72573 16.5913C8.30955 17.1682 9.00205 17.6235 9.76312 17.9308C10.5242 18.2382 11.3387 18.3914 12.1594 18.3816C15.5541 18.3386 18.2835 15.5744 18.2835 12.1793C18.2835 8.78433 15.5541 6.02007 12.1594 5.977Z" fill="#F93F23"/>
</g>
</g>
<defs>
<clipPath id="clip0_751_2213">
<rect width="25" height="25" fill="white" transform="translate(0 0.0195312)"/>
</clipPath>
</defs>
</svg>
