<svg width="30" height="25" viewBox="0 0 30 25" fill="none" xmlns="http://www.w3.org/2000/svg">
<path id="Vector" fill-rule="evenodd" clip-rule="evenodd" d="M30 3.23295C29.4366 3.45835 28.8588 3.64605 28.2705 3.79483C27.6922 3.93872 27.087 4.06779 26.4549 4.1834C27.087 3.78012 27.6357 3.29076 28.0983 2.71397C28.5596 2.13728 28.9335 1.50404 29.2227 0.813081C28.5757 1.10507 27.927 1.39319 27.2766 1.67744C26.5998 1.96904 25.8884 2.17236 25.1598 2.28241C24.6467 1.65301 23.9955 1.15021 23.2568 0.812985C22.4693 0.458229 21.6136 0.280238 20.75 0.29152C19.0783 0.29152 17.6367 0.896489 16.4262 2.10776C15.2158 3.31636 14.6107 4.78713 14.6107 6.51327C14.6107 6.86009 14.6671 7.32251 14.7842 7.89795C12.1912 7.78235 9.8122 7.15053 7.65105 5.99706C5.50578 4.85712 3.61001 3.29986 2.07516 1.41681C1.5623 2.3729 1.29475 3.44134 1.2965 4.5263C1.2965 6.8319 2.19076 8.53254 3.97682 9.62553C2.9399 9.62553 2.01726 9.397 1.21041 8.93314V9.02057C1.21041 10.5195 1.67169 11.8302 2.59424 12.9542C3.51411 14.0754 4.66806 14.7825 6.05188 15.0715C5.81041 15.1311 5.56506 15.1738 5.31764 15.1992C5.01611 15.2313 4.71306 15.246 4.40981 15.2437C4.1786 15.2437 3.83283 15.1885 3.37156 15.0715C3.71723 16.2801 4.40981 17.2898 5.44672 18.0963C6.48363 18.903 7.69404 19.3345 9.07787 19.3923C6.8871 21.1212 4.35201 21.9856 1.4699 21.9856H0C1.36645 22.8676 2.8512 23.5511 4.40981 24.0156C6.02102 24.5062 7.69405 24.7495 9.42354 24.7495C12.2477 24.7495 14.7546 24.2172 16.9453 23.1525C19.1361 22.0863 20.9666 20.7191 22.4351 19.0454C23.8897 17.4001 25.0196 15.4943 25.765 13.4286C26.5114 11.3556 26.8879 9.27986 26.8879 7.2069V6.42853C27.51 5.97895 28.089 5.47264 28.6175 4.91611C29.1353 4.36894 29.5965 3.80697 30 3.23162" fill="#F93F23"/>
</svg>
