<svg width="28" height="28" viewBox="0 0 28 28" fill="none" xmlns="http://www.w3.org/2000/svg">
<path id="Vector" d="M26.7975 23.0651L20.3779 16.6462C21.3787 15.003 21.9066 13.1155 21.9034 11.1915C21.9034 5.3878 16.8744 0.359375 11.07 0.359375C5.26821 0.359375 0.5625 5.06509 0.5625 10.8682C0.5625 16.6719 5.59093 21.7003 11.3946 21.7003C13.3232 21.7003 15.1309 21.177 16.6854 20.2693L23.1377 26.7236C23.2878 26.8738 23.466 26.993 23.6622 27.0743C23.8584 27.1556 24.0687 27.1975 24.281 27.1975C24.4934 27.1975 24.7037 27.1556 24.8999 27.0743C25.096 26.993 25.2743 26.8738 25.4244 26.7236L27.0251 25.1229C27.657 24.4916 27.4281 23.6957 26.7969 23.0657L26.7975 23.0651ZM3.79607 10.8675C3.79607 6.84966 7.05343 3.5923 11.07 3.5923C15.0879 3.5923 18.6686 7.17302 18.6686 11.1909C18.6686 15.2087 15.4125 18.4667 11.3946 18.4667C7.37679 18.4667 3.79607 14.8854 3.79607 10.8675Z" fill="#A1A1A1"/>
</svg>
