<svg width="17" height="17" viewBox="0 0 17 17" fill="none" xmlns="http://www.w3.org/2000/svg">
<path id="Vector" d="M6.4995 1.9995C5.30602 1.9995 4.16143 2.4736 3.31752 3.31752C2.4736 4.16143 1.9995 5.30602 1.9995 6.4995C1.9995 7.69297 2.4736 8.83756 3.31752 9.68148C4.16143 10.5254 5.30602 10.9995 6.4995 10.9995C7.69297 10.9995 8.83756 10.5254 9.68148 9.68148C10.5254 8.83756 10.9995 7.69297 10.9995 6.4995C10.9995 5.30602 10.5254 4.16143 9.68148 3.31752C8.83756 2.4736 7.69297 1.9995 6.4995 1.9995ZM11.7485 10.3345L16.2065 14.7925L14.7925 16.2065L10.3345 11.7485C9.0126 12.7143 7.37495 13.1456 5.74881 12.9565C4.12267 12.7673 2.62781 11.9714 1.56295 10.7279C0.498088 9.48448 -0.0583432 7.885 0.00484823 6.24911C0.0680397 4.61322 0.7462 3.06142 1.90381 1.90381C3.06142 0.7462 4.61322 0.0680397 6.24911 0.00484823C7.885 -0.0583432 9.48448 0.498088 10.7279 1.56295C11.9714 2.62781 12.7673 4.12267 12.9565 5.74881C13.1456 7.37495 12.7143 9.0126 11.7485 10.3345Z" fill="#333333"/>
</svg>
