<svg width="88" height="88" viewBox="0 0 88 88" fill="none" xmlns="http://www.w3.org/2000/svg">
<g id="image" clip-path="url(#clip0_751_2192)">
<g id="Group">
<path id="Vector" d="M44 84.9062C66.5919 84.9062 84.9062 66.5919 84.9062 44C84.9062 21.4081 66.5919 3.09375 44 3.09375C21.4081 3.09375 3.09375 21.4081 3.09375 44C3.09375 66.5919 21.4081 84.9062 44 84.9062Z" fill="white"/>
<path id="Vector_2" d="M23.5125 32.6562C21.2438 32.6562 19.5938 38.775 20.4188 44.4125L26.8125 42.6937C26.8125 37.2625 25.85 32.6562 23.5125 32.6562ZM48.9156 34.4781C47.9188 34.4781 47.1281 34.7875 46.475 35.3031V52.5938C46.8875 53.1781 47.575 53.625 48.6062 53.625C51.15 53.625 53.1438 50.9094 53.1438 43.6562C53.1438 38.775 52.25 34.4781 48.9156 34.4781ZM44 0C19.6969 0 0 19.6969 0 44C0 68.2687 19.6969 88 44 88C68.3031 88 88 68.3031 88 44C88 19.6969 68.3031 0 44 0ZM69.3 19.9031C71.7406 19.9031 73.7344 21.7594 73.7344 23.9938C73.7344 26.2969 71.7406 28.0844 69.3 28.0844C66.8594 28.1187 64.8656 26.2969 64.8656 23.9938C64.8656 21.6906 66.8594 19.9031 69.3 19.9031ZM35.2 42.625L20.8656 46.6813C21.175 48.2969 22.0688 49.8094 23.3063 50.8406C24.3719 51.5625 25.6437 52.0437 26.9844 52.0437C31.2812 52.0437 34.1 48.2969 34.1 48.2969L34.7188 48.5031C34.7188 48.5375 34.6844 48.6062 34.6844 48.6406H34.7188C34.3406 50.6 31.4875 57.6125 22.9969 57.6125C19.6969 57.6125 17.05 56.5469 15.0219 54.7937C11.9281 52.2844 10.2094 48.2969 10.2094 44C10.2094 36.7469 15.125 30.4562 23.4437 30.4562C29.9406 30.4562 34.9594 35.475 35.2 42.4875V42.625ZM51.4938 57.5094C49.5688 57.5094 47.7813 56.8906 46.5094 55.825V68.3031H37.3656L37.4 30.9375H46.3031L46.5094 33.3438C48.0219 31.5563 50.1531 30.4219 52.6625 30.4219C59.0906 30.4219 62.1844 36.7125 62.1844 43.9656C62.1844 51.8031 57.5781 57.5094 51.4938 57.5094ZM73.9062 56.8906H64.7281L64.7625 31.0062H73.9062V56.8906Z" fill="#F93F23"/>
</g>
</g>
<defs>
<clipPath id="clip0_751_2192">
<rect width="88" height="88" fill="white"/>
</clipPath>
</defs>
</svg>
