<svg width="138" height="30" viewBox="0 0 138 30" fill="none" xmlns="http://www.w3.org/2000/svg">
<path id="Vector" d="M22.6843 20.5447C22.0529 20.5447 21.6696 20.2966 21.4441 19.9133V9.69858C21.8275 9.40545 22.301 9.2025 22.8647 9.2025C24.8265 9.2025 25.3676 11.728 25.3676 14.6368C25.3451 18.9437 24.15 20.5447 22.6843 20.5447ZM25.052 6.85741C23.5637 6.85741 22.3235 7.53388 21.4216 8.57113L21.3088 7.15054H16.0549L16.0324 29.226H21.4441V21.8525C22.1882 22.4839 23.248 22.8447 24.3755 22.8447C27.9833 22.8447 30.6892 19.4623 30.6892 14.8398C30.6892 10.5554 28.8627 6.85741 25.052 6.85741ZM85.0774 7.19564H90.4667V22.4839H85.0774V7.19564ZM83.6569 10.0368C83.6569 11.8182 82.6422 13.0358 80.9961 13.0358C79.3726 13.0358 78.5157 11.8633 78.5157 10.7358C78.5157 10.3525 78.651 9.60839 79.0343 9.04466C78.3578 8.68388 76.4637 9.45054 75.7873 11.6603V22.4839H70.398V7.19564H75.6971L75.7647 9.74368C76.7343 7.91721 78.2 6.85741 80.0265 6.85741C82.3941 6.85741 83.6569 8.34564 83.6569 10.0368ZM62.8667 7.19564H68.2559V22.4839H62.8667V19.1015C62.3255 20.5898 61.0176 22.8447 58.2441 22.8447C55.3578 22.8447 53.9598 20.5672 53.9598 18.1319V9.40545C53.9598 8.25545 53.6441 7.69172 53.2157 7.48878V7.19564H59.349V16.576C59.349 18.8986 60.3863 19.0564 60.9951 19.0564C61.852 19.0564 62.4833 18.3123 62.8667 17.2525V7.19564ZM138 17.5231C138 20.6123 135.249 22.7996 131.303 22.7996C129.228 22.7996 127.244 21.7623 126.117 21.7623C125.305 21.7623 125.102 21.9878 125.102 21.9878L124.922 17.7486H125.395C127.56 20.6123 129.048 21.8751 131.28 21.8751C132.724 21.8751 133.941 21.1535 133.941 19.9133C133.941 18.5829 132.746 18.2672 131.01 17.8388C126.342 16.6437 125.034 14.6143 125.034 11.8858C125.034 8.86427 127.673 6.81231 130.965 6.81231C132.092 6.81231 133.152 7.0378 133.964 7.30839C134.46 7.46623 135.903 8.0976 136.873 8.02996V12.1339H136.422C134.595 9.47309 133.017 7.71427 131.01 7.71427C129.747 7.71427 129.025 8.50349 129.025 9.51819C129.025 10.7584 130.198 11.0966 132.295 11.7054C136.083 12.878 138 14.3437 138 17.5231ZM117.864 7.19564H123.253V22.4839H117.864V19.1015C117.323 20.5898 116.015 22.8447 113.241 22.8447C110.355 22.8447 108.957 20.5672 108.957 18.1319V9.40545C108.957 8.25545 108.641 7.69172 108.213 7.48878V7.19564H114.346V16.576C114.346 18.8986 115.383 19.0564 115.992 19.0564C116.849 19.0564 117.48 18.3123 117.864 17.2525V7.19564ZM99.6667 21.8525C98.1108 21.8525 97.5471 19.7329 97.5471 14.8172C97.5471 9.90152 98.1108 7.78192 99.6667 7.78192C101.223 7.78192 101.786 9.90152 101.786 14.8172C101.786 19.7329 101.2 21.8525 99.6667 21.8525ZM99.6667 6.85741C94.7961 6.85741 91.9775 10.4202 91.9775 14.8172C91.9775 19.2143 94.7961 22.777 99.6667 22.777C104.537 22.777 107.333 19.2143 107.333 14.8172C107.333 10.4202 104.515 6.85741 99.6667 6.85741ZM32.2225 7.19564H37.6118V22.4839H32.2225V7.19564ZM52.2912 17.4103L52.6294 17.5231C52.2461 19.5525 50.3745 22.8221 46.1578 22.8221C41.4 22.8221 39.1225 19.1241 39.1225 14.8398C39.1225 10.2398 42.1441 6.83486 46.6539 6.83486C49.9912 6.83486 52.0431 8.61623 52.0431 10.5329C52.0431 11.7054 51.1637 12.6525 49.8559 12.6525C48.9088 12.6525 47.9392 11.7731 47.9392 10.6907C47.9392 9.58584 48.6157 8.97701 49.4049 8.84172C49.1343 8.34564 48.6608 7.96231 47.8039 7.96231C46.3382 7.96231 44.6696 9.78878 44.6696 14.1858C44.6696 17.0721 46.0676 19.6202 48.9314 19.6202C51.2314 19.6202 52.2912 17.4103 52.2912 17.4103ZM85.1225 3.04662C85.1225 1.69368 86.2951 0.611328 87.7608 0.611328C89.2039 0.611328 90.399 1.69368 90.399 3.04662C90.399 4.39956 89.2265 5.48192 87.7608 5.48192C86.2951 5.48192 85.1225 4.39956 85.1225 3.04662ZM32.2676 3.04662C32.2676 1.69368 33.4402 0.611328 34.9059 0.611328C36.349 0.611328 37.5441 1.69368 37.5441 3.04662C37.5441 4.39956 36.3716 5.48192 34.9059 5.48192C33.4402 5.48192 32.2676 4.39956 32.2676 3.04662ZM6.04314 15.1103C5.56961 11.7956 6.51667 8.16525 7.86961 8.16525C9.2451 8.16525 9.80882 10.8937 9.83137 14.0731L6.04314 15.1103ZM7.80196 6.87996C2.90882 6.87996 0 10.6005 0 14.8623C0 17.4103 1.01471 19.7554 2.84118 21.2437C4.03627 22.2809 5.61471 22.9123 7.55392 22.9123C12.5598 22.9123 14.251 18.7858 14.4765 17.6133H14.4539C14.4539 17.5907 14.4539 17.5682 14.4765 17.5456L14.1382 17.4329C14.1382 17.4329 12.4696 19.6427 9.94412 19.6427C9.1549 19.6427 8.41078 19.3721 7.77941 18.9211C7.03529 18.3123 6.51667 17.4103 6.33627 16.4633L14.7696 14.028V13.9603C14.5892 9.83388 11.6578 6.87996 7.80196 6.87996Z" fill="#EF4229"/>
</svg>
