<svg width="181" height="38" viewBox="0 0 181 38" fill="none" xmlns="http://www.w3.org/2000/svg">
<path id="Vector" d="M30.1507 26.252C29.3272 26.252 28.8272 25.9284 28.5331 25.4284V12.1049C29.0331 11.7225 29.6507 11.4578 30.386 11.4578C32.9449 11.4578 33.6507 14.752 33.6507 18.5461C33.6213 24.1637 32.0625 26.252 30.1507 26.252ZM33.239 8.39901C31.2978 8.39901 29.6801 9.28136 28.5037 10.6343L28.3566 8.78136H21.5037L21.4743 37.5755H28.5331V27.9578C29.5037 28.7814 30.886 29.252 32.3566 29.252C37.0625 29.252 40.5919 24.8402 40.5919 18.8108C40.5919 13.2225 38.2096 8.39901 33.239 8.39901ZM111.533 8.84019H118.563V28.7814H111.533V8.84019ZM109.68 12.5461C109.68 14.8696 108.357 16.4578 106.21 16.4578C104.092 16.4578 102.974 14.9284 102.974 13.4578C102.974 12.9578 103.151 11.9872 103.651 11.252C102.768 10.7814 100.298 11.7814 99.4154 14.6637V28.7814H92.386V8.84019H99.2978L99.386 12.1637C100.651 9.78136 102.563 8.39901 104.945 8.39901C108.033 8.39901 109.68 10.3402 109.68 12.5461ZM82.5625 8.84019H89.5919V28.7814H82.5625V24.3696C81.8566 26.3108 80.1507 29.252 76.5331 29.252C72.7684 29.252 70.9449 26.2814 70.9449 23.1049V11.7225C70.9449 10.2225 70.5331 9.48725 69.9743 9.22254V8.84019H77.9743V21.0755C77.9743 24.1049 79.3272 24.3108 80.1213 24.3108C81.239 24.3108 82.0625 23.3402 82.5625 21.9578V8.84019ZM180.563 22.3108C180.563 26.3402 176.974 29.1931 171.827 29.1931C169.121 29.1931 166.533 27.8402 165.063 27.8402C164.004 27.8402 163.739 28.1343 163.739 28.1343L163.504 22.6049H164.121C166.945 26.3402 168.886 27.9872 171.798 27.9872C173.68 27.9872 175.268 27.0461 175.268 25.4284C175.268 23.6931 173.71 23.2814 171.445 22.7225C165.357 21.1637 163.651 18.5167 163.651 14.9578C163.651 11.0167 167.092 8.34019 171.386 8.34019C172.857 8.34019 174.239 8.63431 175.298 8.98725C175.945 9.19313 177.827 10.0167 179.092 9.92842V15.2814H178.504C176.121 11.8108 174.063 9.51666 171.445 9.51666C169.798 9.51666 168.857 10.5461 168.857 11.8696C168.857 13.4872 170.386 13.9284 173.121 14.7225C178.063 16.252 180.563 18.1637 180.563 22.3108ZM154.298 8.84019H161.327V28.7814H154.298V24.3696C153.592 26.3108 151.886 29.252 148.268 29.252C144.504 29.252 142.68 26.2814 142.68 23.1049V11.7225C142.68 10.2225 142.268 9.48725 141.71 9.22254V8.84019H149.71V21.0755C149.71 24.1049 151.063 24.3108 151.857 24.3108C152.974 24.3108 153.798 23.3402 154.298 21.9578V8.84019ZM130.563 27.9578C128.533 27.9578 127.798 25.1931 127.798 18.7814C127.798 12.3696 128.533 9.60489 130.563 9.60489C132.592 9.60489 133.327 12.3696 133.327 18.7814C133.327 25.1931 132.563 27.9578 130.563 27.9578ZM130.563 8.39901C124.21 8.39901 120.533 13.0461 120.533 18.7814C120.533 24.5167 124.21 29.1637 130.563 29.1637C136.915 29.1637 140.563 24.5167 140.563 18.7814C140.563 13.0461 136.886 8.39901 130.563 8.39901ZM42.5919 8.84019H49.6213V28.7814H42.5919V8.84019ZM68.7684 22.1637L69.2096 22.3108C68.7096 24.9578 66.2684 29.2225 60.7684 29.2225C54.5625 29.2225 51.5919 24.399 51.5919 18.8108C51.5919 12.8108 55.5331 8.3696 61.4154 8.3696C65.7684 8.3696 68.4449 10.6931 68.4449 13.1931C68.4449 14.7225 67.2978 15.9578 65.5919 15.9578C64.3566 15.9578 63.0919 14.8108 63.0919 13.399C63.0919 11.9578 63.9743 11.1637 65.0037 10.9872C64.6507 10.3402 64.0331 9.84019 62.9154 9.84019C61.0037 9.84019 58.8272 12.2225 58.8272 17.9578C58.8272 21.7225 60.6507 25.0461 64.386 25.0461C67.386 25.0461 68.7684 22.1637 68.7684 22.1637ZM111.592 3.42842C111.592 1.66372 113.121 0.251953 115.033 0.251953C116.915 0.251953 118.474 1.66372 118.474 3.42842C118.474 5.19313 116.945 6.60489 115.033 6.60489C113.121 6.60489 111.592 5.19313 111.592 3.42842ZM42.6507 3.42842C42.6507 1.66372 44.1801 0.251953 46.0919 0.251953C47.9743 0.251953 49.5331 1.66372 49.5331 3.42842C49.5331 5.19313 48.0037 6.60489 46.0919 6.60489C44.1801 6.60489 42.6507 5.19313 42.6507 3.42842ZM8.44485 19.1637C7.82721 14.8402 9.0625 10.1049 10.8272 10.1049C12.6213 10.1049 13.3566 13.6637 13.386 17.8108L8.44485 19.1637ZM10.739 8.42842C4.35662 8.42842 0.5625 13.2814 0.5625 18.8402C0.5625 22.1637 1.88603 25.2225 4.26838 27.1637C5.82721 28.5167 7.88603 29.3402 10.4154 29.3402C16.9449 29.3402 19.1507 23.9578 19.4449 22.4284H19.4154C19.4154 22.399 19.4154 22.3696 19.4449 22.3402L19.0037 22.1931C19.0037 22.1931 16.8272 25.0755 13.5331 25.0755C12.5037 25.0755 11.5331 24.7225 10.7096 24.1343C9.73897 23.3402 9.0625 22.1637 8.82721 20.9284L19.8272 17.752V17.6637C19.5919 12.2814 15.7684 8.42842 10.739 8.42842Z" fill="white"/>
</svg>
