<svg width="24" height="17" viewBox="0 0 24 17" fill="none" xmlns="http://www.w3.org/2000/svg">
<path id="Vector" d="M23.499 2.69078C23.3633 2.18018 23.0956 1.71428 22.7232 1.33973C22.3507 0.965031 21.8863 0.694881 21.3765 0.556281C19.5045 0.0507811 12 0.0507812 12 0.0507812C12 0.0507812 4.4955 0.0507811 2.6235 0.556281C2.11372 0.694881 1.64932 0.965031 1.27681 1.33973C0.904304 1.71428 0.636764 2.18018 0.500999 2.69078C-5.36442e-07 4.57478 0 8.50478 0 8.50478C0 8.50478 -5.36442e-07 12.4348 0.500999 14.3188C0.636539 14.8297 0.903975 15.2959 1.2765 15.6707C1.64901 16.0456 2.11354 16.316 2.6235 16.4548C4.4955 16.9603 12 16.9603 12 16.9603C12 16.9603 19.5045 16.9603 21.3765 16.4548C21.8865 16.316 22.3511 16.0456 22.7235 15.6707C23.0961 15.2959 23.3634 14.8297 23.499 14.3188C24 12.4363 24 8.50478 24 8.50478C24 8.50478 24 4.57478 23.499 2.69078ZM9.546 12.0733V4.93628L15.8175 8.50628L9.546 12.0733Z" fill="white"/>
</svg>
