<svg width="19" height="25" viewBox="0 0 19 25" fill="none" xmlns="http://www.w3.org/2000/svg">
<path id="Vector" d="M7.75289 15.7228C7.18889 18.1903 6.63689 20.5678 5.43389 22.4428C5.06489 23.0173 4.69439 23.7403 4.06439 24.0508C3.13439 19.2613 5.07989 15.2308 5.84789 11.2048C4.86839 9.20527 5.47739 5.81978 7.57589 5.43578C10.6149 4.88078 9.81389 8.54678 9.29939 10.2508C9.01439 11.1868 8.50589 12.0823 8.58239 13.1083C8.75189 15.2698 11.4714 15.4108 12.8649 14.2963C14.8629 12.7048 15.4419 9.62827 15.2454 7.10077C14.9499 3.25327 10.5924 1.34073 6.74339 2.87823C4.75889 3.67027 2.95889 5.49278 2.69789 8.17027C2.56289 9.58027 2.85839 10.7068 3.41339 11.5018C3.49589 11.6233 3.78389 11.8363 3.82739 12.1588C3.91439 12.8098 3.52739 13.5118 3.17339 13.9978C1.20239 13.4308 0.185393 11.6623 0.0233934 9.42278C-0.351667 4.32277 3.83639 0.44673 8.76089 0.0837296C14.0214 -0.30177 18.1884 2.73421 18.5754 7.16077C18.8634 10.4503 17.6949 13.7608 15.8409 15.5443C14.4459 16.8823 11.4834 18.1948 9.06089 16.9138C8.52539 16.6288 8.28539 16.2808 7.75289 15.7228Z" fill="white"/>
</svg>
