<svg width="24" height="25" viewBox="0 0 24 25" fill="none" xmlns="http://www.w3.org/2000/svg">
<path id="Vector" d="M12 0.0507812C15.2595 0.0507812 15.6675 0.0657818 16.947 0.122782C18.225 0.181282 19.0965 0.383781 19.86 0.680781C20.649 0.986781 21.3195 1.39778 21.9855 2.06528C22.653 2.73128 23.064 3.40028 23.37 4.19078C23.667 4.95428 23.8695 5.82578 23.928 7.10378C23.9865 8.38328 24 8.79128 24 12.0508C24 15.3103 23.985 15.7183 23.928 16.9978C23.8695 18.2758 23.667 19.1473 23.37 19.9108C23.0685 20.7115 22.596 21.4369 21.9855 22.0363C21.3195 22.7038 20.6505 23.1148 19.86 23.4208C19.0965 23.7178 18.225 23.9203 16.947 23.9788C15.6675 24.0373 15.2595 24.0508 12 24.0508C8.7405 24.0508 8.3325 24.0358 7.053 23.9788C5.775 23.9203 4.9035 23.7178 4.14 23.4208C3.3393 23.1193 2.61389 22.6468 2.0145 22.0363C1.4039 21.4369 0.931395 20.7115 0.63 19.9108C0.333 19.1473 0.130501 18.2758 0.0720005 16.9978C0.0150005 15.7183 0 15.3103 0 12.0508C0 8.79128 0.0150005 8.38328 0.0720005 7.10378C0.130501 5.82578 0.333 4.95428 0.63 4.19078C0.936 3.40178 1.347 2.73128 2.0145 2.06528C2.6805 1.39778 3.3495 0.986781 4.14 0.680781C4.9035 0.383781 5.775 0.181282 7.053 0.122782C8.3325 0.0657818 8.7405 0.0507812 12 0.0507812ZM12 3.05078C9.069 3.05078 8.721 3.06128 7.5645 3.11528C6.4935 3.16328 5.913 3.34178 5.5245 3.49328C5.04855 3.66938 4.61805 3.94973 4.2645 4.31378C3.879 4.69778 3.6405 5.06378 3.4425 5.57678C3.2925 5.96378 3.1125 6.54428 3.0645 7.61528C3.0105 8.77178 3 9.11978 3 12.0508C3 14.9818 3.0105 15.3298 3.0645 16.4863C3.1125 17.5573 3.291 18.1378 3.4425 18.5263C3.6405 19.0378 3.879 19.4038 4.263 19.7863C4.647 20.1718 5.013 20.4103 5.526 20.6083C5.913 20.7583 6.4935 20.9383 7.5645 20.9863C8.721 21.0403 9.069 21.0508 12 21.0508C14.931 21.0508 15.279 21.0403 16.4355 20.9863C17.5065 20.9383 18.087 20.7598 18.4755 20.6083C18.987 20.4103 19.353 20.1718 19.7355 19.7878C20.121 19.4038 20.3595 19.0378 20.5575 18.5248C20.7075 18.1378 20.8875 17.5573 20.9355 16.4863C20.9895 15.3298 21 14.9818 21 12.0508C21 9.11978 20.9895 8.77178 20.9355 7.61528C20.8875 6.54428 20.709 5.96378 20.5575 5.57528C20.3814 5.09933 20.1011 4.66883 19.737 4.31528C19.3829 3.95033 18.9511 3.66938 18.474 3.49328C18.087 3.34328 17.5065 3.16328 16.4355 3.11528C15.279 3.06128 14.931 3.05078 12 3.05078ZM12 5.70278C12.8337 5.70278 13.6591 5.86703 14.4292 6.18593C15.1995 6.50498 15.8993 6.97253 16.4888 7.56203C17.0783 8.15153 17.5458 8.85128 17.8649 9.62153C18.1838 10.3916 18.348 11.2171 18.348 12.0508C18.348 12.8845 18.1838 13.7099 17.8649 14.48C17.5458 15.2503 17.0783 15.95 16.4888 16.5395C15.8993 17.129 15.1995 17.5966 14.4292 17.9156C13.6591 18.2345 12.8337 18.3988 12 18.3988C10.3164 18.3988 8.7018 17.7299 7.51125 16.5395C6.32085 15.349 5.652 13.7344 5.652 12.0508C5.652 10.3672 6.32085 8.75258 7.51125 7.56203C8.7018 6.37163 10.3164 5.70278 12 5.70278ZM12 15.6028C12.942 15.6028 13.8455 15.2285 14.5116 14.5624C15.1778 13.8962 15.552 12.9928 15.552 12.0508C15.552 11.1088 15.1778 10.2053 14.5116 9.53918C13.8455 8.87303 12.942 8.49878 12 8.49878C11.058 8.49878 10.1545 8.87303 9.4884 9.53918C8.82225 10.2053 8.448 11.1088 8.448 12.0508C8.448 12.9928 8.82225 13.8962 9.4884 14.5624C10.1545 15.2285 11.058 15.6028 12 15.6028ZM19.95 5.82578C19.95 6.28328 19.7682 6.72203 19.4448 7.04558C19.1212 7.36898 18.6825 7.55078 18.225 7.55078C17.7675 7.55078 17.3287 7.36898 17.0052 7.04558C16.6818 6.72203 16.5 6.28328 16.5 5.82578C16.5 5.36828 16.6818 4.92953 17.0052 4.60598C17.3287 4.28258 17.7675 4.10078 18.225 4.10078C18.6825 4.10078 19.1212 4.28258 19.4448 4.60598C19.7682 4.92953 19.95 5.36828 19.95 5.82578Z" fill="white"/>
</svg>
