<svg width="24" height="21" viewBox="0 0 24 21" fill="none" xmlns="http://www.w3.org/2000/svg">
<path id="Vector" d="M7.548 20.056C16.605 20.056 21.558 12.553 21.558 6.04596C21.5578 5.83386 21.5529 5.62191 21.543 5.40996C22.5067 4.71306 23.3388 3.85011 24 2.86146C23.1015 3.25986 22.1484 3.52131 21.1725 3.63696C22.2004 3.02151 22.9698 2.05341 23.337 0.913C22.3707 1.4866 21.3135 1.89091 20.211 2.10846C19.4699 1.31565 18.4875 0.789835 17.4168 0.61282C16.346 0.435805 15.2466 0.617501 14.2898 1.12963C13.3329 1.64178 12.5719 2.45571 12.1254 3.44481C11.6787 4.43406 11.5713 5.543 11.82 6.59945C9.8619 6.50105 7.9464 5.99181 6.198 5.10486C4.44945 4.21806 2.90712 2.97321 1.671 1.4515C1.03946 2.53491 0.845489 3.81876 1.12875 5.04036C1.41201 6.26211 2.15111 7.32951 3.195 8.02446C2.41299 8.00106 1.64805 7.79015 0.964499 7.40945V7.47246C0.964784 8.60916 1.3582 9.7109 2.07804 10.5907C2.79787 11.4704 3.7998 12.0742 4.914 12.2995C4.1886 12.4964 3.4278 12.5252 2.6895 12.3835C3.00405 13.3621 3.6165 14.2178 4.4415 14.831C5.26635 15.4444 6.26235 15.7843 7.29 15.8035C5.54565 17.1722 3.39165 17.9146 1.1745 17.911C0.777 17.911 0.3855 17.8885 0 17.8435C2.25165 19.2896 4.872 20.0587 7.548 20.056Z" fill="white"/>
</svg>
