<svg width="25" height="26" viewBox="0 0 25 26" fill="none" xmlns="http://www.w3.org/2000/svg">
<g id="image" clip-path="url(#clip0_751_2250)">
<g id="Group">
<path id="Vector" d="M25 12.9297C25 19.8633 19.4336 25.4297 12.5 25.4297C5.625 25.4297 0 19.8047 0 12.9297C0 5.99609 5.625 0.429688 12.5 0.429688C19.4336 0.429688 25 5.99609 25 12.9297Z" fill="#F93F23"/>
<path id="Vector_2" fill-rule="evenodd" clip-rule="evenodd" d="M17.832 9.72656C18.3594 9.43359 18.7109 8.90625 18.9648 8.35937C18.4961 8.59375 17.8906 8.82812 17.3047 8.94531C16.8945 8.47656 16.2305 8.125 15.4687 8.125C14.1016 8.125 12.9297 9.25781 12.9297 10.6641C12.9297 10.8398 12.9883 11.0742 12.9883 11.25C10.8594 11.1328 9.02344 10.1172 7.77344 8.59375C7.53906 9.00391 7.48047 9.41406 7.48047 9.90234C7.48047 10.7812 7.89062 11.5625 8.61328 11.9727C8.20312 11.9727 7.79297 11.8555 7.48047 11.6797V11.7383C7.48047 12.9297 8.30078 13.9844 9.49219 14.2187C9.31641 14.2773 9.08203 14.2773 8.84766 14.2773C8.73047 14.2773 8.55469 14.2187 8.4375 14.2187C8.73047 15.2344 9.62891 15.9375 10.8008 15.9961C9.98047 16.6406 8.84766 17.0703 7.65625 17.0703H7.07031C8.20313 17.7734 9.49219 18.2031 10.918 18.2031C15.6055 18.2031 18.0859 14.3555 18.0859 10.9766V10.6836C18.5547 10.332 19.043 9.86328 19.3945 9.375C18.7891 9.49219 18.3594 9.66797 17.832 9.72656Z" fill="white"/>
</g>
</g>
<defs>
<clipPath id="clip0_751_2250">
<rect width="25" height="25" fill="white" transform="translate(0 0.429688)"/>
</clipPath>
</defs>
</svg>
