<svg width="25" height="26" viewBox="0 0 25 26" fill="none" xmlns="http://www.w3.org/2000/svg">
<g id="image" clip-path="url(#clip0_751_2255)">
<g id="Group">
<path id="Vector" d="M25 12.9297C25 19.8337 19.404 25.4297 12.5 25.4297C5.597 25.4297 0 19.8337 0 12.9297C0 6.02569 5.596 0.429688 12.5 0.429688C19.403 0.429688 25 6.02569 25 12.9297Z" fill="#F93F23"/>
<g id="Group_2">
<path id="Vector_2" d="M12.5972 6.19336C10.8372 6.19336 10.6172 6.20136 9.92619 6.23336C9.23619 6.26736 8.76519 6.38036 8.35319 6.54736C7.91819 6.71736 7.52519 6.98336 7.20519 7.32436C6.87378 7.66406 6.61906 8.07087 6.45819 8.51736C6.29819 8.94536 6.18819 9.43536 6.15719 10.1524C6.12519 10.8704 6.11719 11.1004 6.11719 12.9294C6.11719 14.7594 6.12519 14.9884 6.15719 15.7064C6.18819 16.4234 6.29719 16.9134 6.45819 17.3414C6.62419 17.7844 6.84519 18.1604 7.20519 18.5344C7.56519 18.9094 7.92719 19.1394 8.35319 19.3114C8.76519 19.4784 9.23619 19.5914 9.92619 19.6244C10.6162 19.6574 10.8382 19.6644 12.5972 19.6644C14.3572 19.6644 14.5772 19.6574 15.2692 19.6244C15.9592 19.5924 16.4292 19.4784 16.8412 19.3114C17.2762 19.1414 17.6692 18.8754 17.9892 18.5344C18.3492 18.1604 18.5712 17.7844 18.7362 17.3414C18.8962 16.9134 19.0062 16.4234 19.0382 15.7064C19.0692 14.9884 19.0762 14.7584 19.0762 12.9294C19.0762 11.0994 19.0692 10.8704 19.0382 10.1524C19.0062 9.43536 18.8972 8.94536 18.7362 8.51736C18.5755 8.07078 18.3208 7.66393 17.9892 7.32436C17.6687 6.98363 17.2766 6.71826 16.8412 6.54736C16.4292 6.38036 15.9582 6.26736 15.2692 6.23436C14.5782 6.20136 14.3572 6.19336 12.5972 6.19336ZM12.5972 7.40736C14.3272 7.40736 14.5322 7.41436 15.2162 7.44736C15.8472 7.47636 16.1902 7.58736 16.4192 7.67836C16.7022 7.78775 16.9566 7.9601 17.1632 8.18236C17.3902 8.41836 17.5302 8.64236 17.6482 8.95636C17.7372 9.19436 17.8432 9.55036 17.8712 10.2074C17.9032 10.9174 17.9092 11.1304 17.9092 12.9294C17.9092 14.7274 17.9032 14.9404 17.8712 15.6514C17.8432 16.3084 17.7372 16.6644 17.6482 16.9014C17.5452 17.1914 17.3802 17.4574 17.1632 17.6764C16.9566 17.8986 16.7022 18.071 16.4192 18.1804C16.1902 18.2724 15.8472 18.3824 15.2162 18.4124C14.5322 18.4444 14.3282 18.4514 12.5972 18.4514C10.8672 18.4514 10.6622 18.4444 9.97919 18.4114C9.34719 18.3824 9.00419 18.2714 8.77619 18.1804C8.49281 18.0711 8.23803 17.8987 8.03119 17.6764C7.81492 17.4571 7.64967 17.1928 7.54719 16.9024C7.45719 16.6644 7.35219 16.3084 7.32319 15.6514C7.29219 14.9414 7.28519 14.7274 7.28519 12.9294C7.28519 11.1304 7.29219 10.9184 7.32319 10.2074C7.35219 9.55036 7.45819 9.19436 7.54719 8.95736C7.66419 8.64236 7.80419 8.41736 8.03119 8.18236C8.23803 7.95997 8.49281 7.78761 8.77619 7.67836C9.00419 7.58636 9.34719 7.47636 9.97919 7.44636C10.6622 7.41436 10.8672 7.40736 12.5972 7.40736Z" fill="white"/>
<path id="Vector_3" d="M12.5965 15.1744C11.4045 15.1744 10.4365 14.1694 10.4365 12.9294C10.4365 11.6894 11.4045 10.6844 12.5965 10.6844C13.7895 10.6844 14.7565 11.6894 14.7565 12.9294C14.7565 14.1694 13.7895 15.1744 12.5965 15.1744ZM12.5965 9.47039C10.7595 9.47039 9.26953 11.0194 9.26953 12.9294C9.26953 14.8394 10.7595 16.3884 12.5965 16.3884C14.4345 16.3884 15.9235 14.8394 15.9235 12.9294C15.9235 11.0194 14.4335 9.47039 12.5965 9.47039ZM16.8325 9.33339C16.8325 9.78039 16.4845 10.1424 16.0555 10.1424C15.6255 10.1424 15.2775 9.78039 15.2775 9.33339C15.2775 8.88739 15.6255 8.52539 16.0555 8.52539C16.4855 8.52539 16.8325 8.88739 16.8325 9.33339Z" fill="white"/>
</g>
</g>
</g>
<defs>
<clipPath id="clip0_751_2255">
<rect width="25" height="25" fill="white" transform="translate(0 0.429688)"/>
</clipPath>
</defs>
</svg>
